# xmcd CD database file
#
# Track frame offsets:
#	150
#	17758
#	39084
#	61874
#	80040
#	103757
#	129490
#	152922
#	174020
#	191750
#	220472
#	234894
#
# Disc length: 3392 seconds
#
# Revision: 0
# Processed by: cddbd v1.5.2PL0 Copyright (c) Steve Scherf et al.
# Submitted via: CDex 1.70beta2
#
DISCID=950d3e0c
DTITLE=Toru Dodo - DoDo 3
DYEAR=2006
DGENRE=Jazz
TTITLE0=R or B
TTITLE1=Bolivia
TTITLE2=Boneless and Skinless
TTITLE3=Inside Bubbles
TTITLE4=NYUCS (New York Underground Car Service)
TTITLE5=A Spiral Escalator
TTITLE6=Arabesuque
TTITLE7=Giacomo Swing
TTITLE8=Brush Pitch
TTITLE9=My Romance
TTITLE10=For Mr.M (Sazae's Theme)
TTITLE11=T.Dog's Theme
EXTD=YEAR: 2006
EXTT0=
EXTT1=
EXTT2=
EXTT3=
EXTT4=
EXTT5=
EXTT6=
EXTT7=
EXTT8=
EXTT9=
EXTT10=
EXTT11=
PLAYORDER=
